<?xml version="1.0" encoding="UTF-8" standalone="no"?>
<!DOCTYPE svg PUBLIC "-//W3C//DTD SVG 1.1//EN"
 "http://www.w3.org/Graphics/SVG/1.1/DTD/svg11.dtd">
<!-- Generated by graphviz version 2.38.0 (20140413.2041)
 -->
<!-- Title: %3 Pages: 1 -->
<svg width="1447pt" height="205pt"
 viewBox="0.00 0.00 1446.56 205.00" xmlns="http://www.w3.org/2000/svg" xmlns:xlink="http://www.w3.org/1999/xlink">
<g id="graph0" class="graph" transform="scale(1 1) rotate(0) translate(4 201)">
<title>%3</title>
<polygon fill="white" stroke="none" points="-4,4 -4,-201 1442.56,-201 1442.56,4 -4,4"/>
<!-- Rhttp://example.org/data/BJHabibie -->
<g id="node1" class="node"><title>Rhttp://example.org/data/BJHabibie</title>
<g id="a_node1"><a xlink:href="http://example.org/data/BJHabibie" xlink:title="http://example.org/data/BJHabibie">
<ellipse fill="none" stroke="blue" cx="701.58" cy="-179" rx="170.07" ry="18"/>
<text text-anchor="middle" x="701.58" y="-175.3" font-family="Times,serif" font-size="14.00">http://example.org/data/BJHabibie</text>
</a>
</g>
</g>
<!-- Rhttp://example.org/data/Person -->
<g id="node2" class="node"><title>Rhttp://example.org/data/Person</title>
<g id="a_node2"><a xlink:href="http://example.org/data/Person" xlink:title="http://example.org/data/Person">
<ellipse fill="none" stroke="blue" cx="323.58" cy="-92" rx="154.873" ry="18"/>
<text text-anchor="middle" x="323.58" y="-88.3" font-family="Times,serif" font-size="14.00">http://example.org/data/Person</text>
</a>
</g>
</g>
<!-- Rhttp://example.org/data/BJHabibie&#45;&gt;Rhttp://example.org/data/Person -->
<g id="edge1" class="edge"><title>Rhttp://example.org/data/BJHabibie&#45;&gt;Rhttp://example.org/data/Person</title>
<path fill="none" stroke="black" d="M618.456,-163.229C587.069,-157.356 551.094,-150.27 518.58,-143 476,-133.479 428.574,-121.353 391.156,-111.427"/>
<polygon fill="black" stroke="black" points="391.939,-108.014 381.375,-108.822 390.137,-114.778 391.939,-108.014"/>
<text text-anchor="middle" x="547.58" y="-131.8" font-family="Times,serif" font-size="14.00">rdf:type</text>
</g>
<!-- B_:genid1 -->
<g id="node3" class="node"><title>B_:genid1</title>
<ellipse fill="none" stroke="green" cx="514.58" cy="-92" rx="18" ry="18"/>
</g>
<!-- Rhttp://example.org/data/BJHabibie&#45;&gt;B_:genid1 -->
<g id="edge2" class="edge"><title>Rhttp://example.org/data/BJHabibie&#45;&gt;B_:genid1</title>
<path fill="none" stroke="black" d="M657.59,-161.507C624.95,-148.745 579.692,-129.933 541.58,-110 540.421,-109.393 539.245,-108.754 538.066,-108.093"/>
<polygon fill="black" stroke="black" points="539.564,-104.911 529.183,-102.79 535.975,-110.921 539.564,-104.911"/>
</g>
<!-- Rhttp://example.org/data/IlhamAkbarHabibie -->
<g id="node4" class="node"><title>Rhttp://example.org/data/IlhamAkbarHabibie</title>
<g id="a_node4"><a xlink:href="http://example.org/data/IlhamAkbarHabibie" xlink:title="http://example.org/data/IlhamAkbarHabibie">
<ellipse fill="none" stroke="blue" cx="764.58" cy="-92" rx="214.462" ry="18"/>
<text text-anchor="middle" x="764.58" y="-88.3" font-family="Times,serif" font-size="14.00">http://example.org/data/IlhamAkbarHabibie</text>
</a>
</g>
</g>
<!-- Rhttp://example.org/data/BJHabibie&#45;&gt;Rhttp://example.org/data/IlhamAkbarHabibie -->
<g id="edge3" class="edge"><title>Rhttp://example.org/data/BJHabibie&#45;&gt;Rhttp://example.org/data/IlhamAkbarHabibie</title>
<path fill="none" stroke="black" d="M714.329,-160.799C723.381,-148.587 735.68,-131.992 745.845,-118.278"/>
<polygon fill="black" stroke="black" points="748.707,-120.293 751.85,-110.175 743.084,-116.125 748.707,-120.293"/>
</g>
<!-- Rhttp://example.org/data/ThareqKemalHabibie -->
<g id="node5" class="node"><title>Rhttp://example.org/data/ThareqKemalHabibie</title>
<g id="a_node5"><a xlink:href="http://example.org/data/ThareqKemalHabibie" xlink:title="http://example.org/data/ThareqKemalHabibie">
<ellipse fill="none" stroke="blue" cx="1217.58" cy="-92" rx="220.961" ry="18"/>
<text text-anchor="middle" x="1217.58" y="-88.3" font-family="Times,serif" font-size="14.00">http://example.org/data/ThareqKemalHabibie</text>
</a>
</g>
</g>
<!-- Rhttp://example.org/data/BJHabibie&#45;&gt;Rhttp://example.org/data/ThareqKemalHabibie -->
<g id="edge4" class="edge"><title>Rhttp://example.org/data/BJHabibie&#45;&gt;Rhttp://example.org/data/ThareqKemalHabibie</title>
<path fill="none" stroke="black" d="M789.405,-163.533C879.43,-148.703 1019.35,-125.654 1114.55,-109.971"/>
<polygon fill="black" stroke="black" points="1115.19,-113.414 1124.49,-108.335 1114.05,-106.507 1115.19,-113.414"/>
</g>
<!-- Rhttp://example.org/data/PresidentOfIndonesia -->
<g id="node6" class="node"><title>Rhttp://example.org/data/PresidentOfIndonesia</title>
<g id="a_node6"><a xlink:href="http://example.org/data/PresidentOfIndonesia" xlink:title="http://example.org/data/PresidentOfIndonesia">
<ellipse fill="none" stroke="blue" cx="223.58" cy="-18.5" rx="223.66" ry="18"/>
<text text-anchor="middle" x="223.58" y="-14.8" font-family="Times,serif" font-size="14.00">http://example.org/data/PresidentOfIndonesia</text>
</a>
</g>
</g>
<!-- B_:genid1&#45;&gt;Rhttp://example.org/data/PresidentOfIndonesia -->
<g id="edge5" class="edge"><title>B_:genid1&#45;&gt;Rhttp://example.org/data/PresidentOfIndonesia</title>
<path fill="none" stroke="black" d="M500.239,-80.6432C496.287,-78.1654 491.896,-75.7378 487.58,-74 443.688,-56.3286 393.287,-44.1148 348.366,-35.804"/>
<polygon fill="black" stroke="black" points="348.735,-32.3142 338.273,-33.9847 347.493,-39.2032 348.735,-32.3142"/>
</g>
<!-- L1998&#45;05&#45;21 -->
<g id="node7" class="node"><title>L1998&#45;05&#45;21</title>
<polygon fill="none" stroke="black" points="465.58,-0.5 465.58,-36.5 563.58,-36.5 563.58,-0.5 465.58,-0.5"/>
<text text-anchor="middle" x="514.58" y="-14.8" font-family="Times,serif" font-size="14.00">1998&#45;05&#45;21</text>
</g>
<!-- B_:genid1&#45;&gt;L1998&#45;05&#45;21 -->
<g id="edge6" class="edge"><title>B_:genid1&#45;&gt;L1998&#45;05&#45;21</title>
<path fill="none" stroke="black" d="M514.58,-73.6918C514.58,-65.612 514.58,-55.8014 514.58,-46.7598"/>
<polygon fill="black" stroke="black" points="518.08,-46.6487 514.58,-36.6488 511.08,-46.6488 518.08,-46.6487"/>
</g>
<!-- L1999&#45;10&#45;20 -->
<g id="node8" class="node"><title>L1999&#45;10&#45;20</title>
<polygon fill="none" stroke="black" points="581.58,-0.5 581.58,-36.5 679.58,-36.5 679.58,-0.5 581.58,-0.5"/>
<text text-anchor="middle" x="630.58" y="-14.8" font-family="Times,serif" font-size="14.00">1999&#45;10&#45;20</text>
</g>
<!-- B_:genid1&#45;&gt;L1999&#45;10&#45;20 -->
<g id="edge7" class="edge"><title>B_:genid1&#45;&gt;L1999&#45;10&#45;20</title>
<path fill="none" stroke="black" d="M529.414,-81.6139C533.362,-79.1287 537.627,-76.4546 541.58,-74 558.723,-63.3549 577.795,-51.6567 593.873,-41.8367"/>
<polygon fill="black" stroke="black" points="595.753,-44.7897 602.466,-36.5929 592.107,-38.8144 595.753,-44.7897"/>
</g>
</g>
</svg>